<?xml version="1.0" encoding="UTF-8"?>
<svg width="469px" height="120px" viewBox="0 0 469 120" version="1.1" xmlns="http://www.w3.org/2000/svg" xmlns:xlink="http://www.w3.org/1999/xlink">
    <title>logo-with-text</title>
    <g id="Page-1" stroke="none" stroke-width="1" fill="none" fill-rule="evenodd">
        <g id="logo-with-text" fill-rule="nonzero">
            <path d="M210.371968,91 L210.371968,91 C206.02336,91 202.168913,89.961039 198.808625,87.8831169 C195.430368,85.7871259 192.788859,82.9322417 190.884097,79.3184641 C188.961366,75.7227555 188,71.6120836 188,66.9864483 L188,66.9864483 C188,62.378882 188.961366,58.2772445 190.884097,54.6815359 C192.788859,51.0677583 195.430368,48.2128741 198.808625,46.1168831 C202.168913,44.038961 206.02336,43 210.371968,43 L210.371968,43 C213.516622,43 216.355795,43.5962733 218.889488,44.7888199 C221.44115,45.9994353 223.552561,47.661773 225.22372,49.7758329 C226.894879,51.8898927 227.820305,54.3111237 228,57.0395257 L228,57.0395257 L228,76.4726143 C227.820305,79.2010164 226.903863,81.6583851 225.250674,83.8447205 C223.633423,86.012987 221.530997,87.7476002 218.943396,89.0485601 C216.373765,90.34952 213.516622,91 210.371968,91 Z M212.486239,78 L212.486239,78 C214.59633,78 216.431193,77.5354037 217.990826,76.6062112 C219.513761,75.6770186 220.733945,74.3834369 221.651376,72.7254658 C222.550459,71.0674948 223,69.1544513 223,66.9863354 L223,66.9863354 C223,64.8182195 222.559633,62.9233954 221.678899,61.3018634 C220.816514,59.6803313 219.59633,58.3867495 218.018349,57.421118 C216.440367,56.473706 214.633028,56 212.59633,56 L212.59633,56 C210.541284,56 208.724771,56.473706 207.146789,57.421118 C205.568807,58.3867495 204.311927,59.6985507 203.376147,61.3565217 C202.458716,63.0144928 202,64.8910973 202,66.9863354 L202,66.9863354 C202,69.099793 202.449541,70.9855072 203.348624,72.6434783 C204.247706,74.3014493 205.495413,75.6041408 207.091743,76.5515528 C208.706422,77.5171843 210.504587,78 212.486239,78 Z M237,21 L237,90 L223.287313,90 L223.287313,77.5360094 L225.376866,66.3211334 L223,55.133412 L223,21 L237,21 Z M267,91 L267,91 C262.291801,91 258.0401,89.9471316 254.244898,87.8413948 C250.467598,85.735658 247.477981,82.856018 245.276047,79.2024747 C243.092016,75.5489314 242,71.4544432 242,66.9190101 L242,66.9190101 C242,62.3835771 243.092016,58.3250844 245.276047,54.7435321 C247.477981,51.143982 250.458647,48.2913386 254.218045,46.1856018 C257.977444,44.0618673 262.238095,43 267,43 L267,43 C271.761905,43 276.022556,44.0438695 279.781955,46.1316085 C283.541353,48.2013498 286.513068,51.0539933 288.6971,54.6895388 C290.899033,58.3070866 292,62.3835771 292,66.9190101 L292,66.9190101 C292,71.4544432 290.899033,75.5489314 288.6971,79.2024747 C286.513068,82.856018 283.541353,85.735658 279.781955,87.8413948 C276.022556,89.9471316 271.761905,91 267,91 Z M267.5,78 L267.5,78 C269.590909,78 271.436364,77.5354037 273.036364,76.6062112 C274.618182,75.6770186 275.836364,74.3743271 276.690909,72.6981366 C277.563636,71.0037267 278,69.0724638 278,66.9043478 L278,66.9043478 C278,64.7362319 277.554545,62.8414079 276.663636,61.2198758 C275.772727,59.5801242 274.545455,58.3047619 272.981818,57.3937888 C271.418182,56.4645963 269.590909,56 267.5,56 L267.5,56 C265.463636,56 263.645455,56.4645963 262.045455,57.3937888 C260.463636,58.3047619 259.227273,59.589234 258.336364,61.247205 C257.445455,62.905176 257,64.8182195 257,66.9863354 L257,66.9863354 C257,69.099793 257.445455,71.0037267 258.336364,72.6981366 C259.227273,74.3743271 260.463636,75.6770186 262.045455,76.6062112 C263.645455,77.5354037 265.463636,78 267.5,78 Z M318.55402,91 L318.55402,91 C314.322446,91 310.586055,90.1351351 307.344849,88.4054054 C304.103643,86.6756757 301.564698,84.2792793 299.728015,81.2162162 C297.909338,78.1531532 297,74.6396396 297,70.6756757 L297,70.6756757 L297,44 L311.450377,44 L311.450377,70.4864865 C311.450377,72.0540541 311.720477,73.4054054 312.260678,74.5405405 C312.800879,75.6936937 313.602178,76.5765766 314.664573,77.1891892 C315.744975,77.8378378 317.041457,78.1621622 318.55402,78.1621622 L318.55402,78.1621622 C320.696817,78.1621622 322.398451,77.4774775 323.65892,76.1081081 C324.919389,74.7567568 325.549623,72.8828829 325.549623,70.4864865 L325.549623,70.4864865 L325.549623,44 L340,44 L340,70.5675676 C340,74.6036036 339.090662,78.1531532 337.271985,81.2162162 C335.435302,84.2792793 332.914363,86.6756757 329.709171,88.4054054 C326.485972,90.1351351 322.767588,91 318.55402,91 Z M372.628032,91 L372.628032,91 C369.555256,91 366.725067,90.34952 364.137466,89.0485601 C361.567835,87.7476002 359.465409,86.012987 357.830189,83.8447205 C356.194969,81.6583851 355.251572,79.2010164 355,76.4726143 L355,76.4726143 L355,57.0395257 C355.251572,54.3111237 356.194969,51.8898927 357.830189,49.7758329 C359.465409,47.661773 361.567835,45.9994353 364.137466,44.7888199 C366.725067,43.5962733 369.555256,43 372.628032,43 L372.628032,43 C376.97664,43 380.831087,44.038961 384.191375,46.1168831 C387.551662,48.2128741 390.193172,51.0677583 392.115903,54.6815359 C394.038634,58.2772445 395,62.378882 395,66.9864483 L395,66.9864483 C395,71.6120836 394.038634,75.7227555 392.115903,79.3184641 C390.193172,82.9322417 387.551662,85.7871259 384.191375,87.8831169 C380.831087,89.961039 376.97664,91 372.628032,91 Z M360.817164,90 L347,90 L347,21 L361,21 L361,55.133412 L358.701493,66.3211334 L360.817164,77.5360094 L360.817164,90 Z M370.513761,78 L370.513761,78 C372.568807,78 374.376147,77.5171843 375.93578,76.5515528 C377.513761,75.6041408 378.752294,74.3014493 379.651376,72.6434783 C380.550459,70.9855072 381,69.099793 381,66.9863354 L381,66.9863354 C381,64.8182195 380.550459,62.905176 379.651376,61.247205 C378.752294,59.589234 377.513761,58.3047619 375.93578,57.3937888 C374.376147,56.4645963 372.568807,56 370.513761,56 L370.513761,56 C368.458716,56 366.623853,56.4645963 365.009174,57.3937888 C363.412844,58.3047619 362.174312,59.589234 361.293578,61.247205 C360.431193,62.905176 360,64.8182195 360,66.9863354 L360,66.9863354 C360,69.1544513 360.449541,71.0674948 361.348624,72.7254658 C362.247706,74.3834369 363.486239,75.6770186 365.06422,76.6062112 C366.642202,77.5354037 368.458716,78 370.513761,78 Z M416,90 L402,90 L402,21 L416,21 L416,90 Z M449.228137,90 L438.011407,90 L419,44 L434.69799,44 L446.756654,80.4929742 L440.971754,80.4929742 L453.329169,44 L469,44 L449.228137,90 Z M440.855294,109 L426,109 L439.827059,80 L449,90.3157895 L440.855294,109 Z" id="Shape" fill="#111111"></path>
            <g id="logoipsum-245">
                <path d="M57.3149542,0 L121.475415,0 C123.684554,-7.10542736e-15 125.475415,1.790861 125.475415,4 C125.475415,4.79732425 125.237131,5.57645597 124.791151,6.23738521 L75.8297162,78.7967315 C74.9001615,80.1743032 73.3469049,81 71.6850458,81 L7.52458529,81 C5.31544629,81 3.52458529,79.209139 3.52458529,77 C3.52458529,76.2026758 3.76286859,75.423544 4.20884896,74.7626148 L53.1702838,2.20326849 C54.0998385,0.82569683 55.6530951,-1.77635684e-15 57.3149542,0 Z" id="Path" fill="#6366F1"></path>
                <path d="M55.7581868,90.8230257 L40.2275655,113.757141 C38.9888688,115.586328 39.4675559,118.07334 41.296743,119.312036 C41.9587991,119.76037 42.7400259,120 43.5396018,120 L111.495043,120 C113.153973,120 114.704888,119.177193 115.635079,117.803587 L164.772398,45.2428696 C166.0111,43.4136864 165.532421,40.9266736 163.703238,39.687971 C163.04118,39.2396324 162.259949,39 161.460369,39 L113.974765,39 C112.315839,39 110.764926,39.8228036 109.834734,41.1964045 L79.2027741,86.4301946 C78.2725826,87.8037956 76.7216697,88.6265992 75.0627436,88.6265992 L59.8982322,88.6265992 C58.2392967,88.6265992 56.6883763,89.449412 55.7581868,90.8230257 Z" id="Path" fill="#393B89"></path>
            </g>
        </g>
    </g>
</svg>